<!--
FILE: MOCKUP_v2.0.svg

Purpose:
Decision Intelligence Command Centre Prototype

Capability:
Animal Flow — Live Capacity Reporting

Layout Pattern:
Decision Intelligence Command Centre

Theme:
Decision-Driven BI Default Theme

Status:
Mockup Prototype

Notes:
- Business review artifact
- Story order preserved
- ZIP/ZAP hierarchy applied
- UX theme applied
- Not final production design
-->

<svg width="1800"
     height="2450"
     viewBox="0 0 1800 2450"
     xmlns="http://www.w3.org/2000/svg">

<style>

.background {
    fill:#F8FAFC;
}

.header {
    fill:#111827;
    font-family:'Segoe UI';
    font-size:32px;
    font-weight:700;
}

.subheader {
    fill:#64748B;
    font-family:'Segoe UI';
    font-size:14px;
}

.section {
    fill:#111827;
    font-family:'Segoe UI';
    font-size:18px;
    font-weight:700;
}

.card {
    fill:#FFFFFF;
    stroke:#E2E8F0;
    stroke-width:1;
}

.cardTitle {
    fill:#64748B;
    font-family:'Segoe UI';
    font-size:12px;
    font-weight:600;
}

.cardValue {
    fill:#111827;
    font-family:'Segoe UI';
    font-size:30px;
    font-weight:700;
}

.label {
    fill:#475569;
    font-family:'Segoe UI';
    font-size:13px;
}

.success {
    fill:#16A34A;
}

.warning {
    fill:#F59E0B;
}

.critical {
    fill:#DC2626;
}

.info {
    fill:#2563EB;
}

</style>

<!-- Background -->

<rect width="1800"
      height="2450"
      class="background"/>

<!-- ================================================= -->
<!-- HEADER                                            -->
<!-- ================================================= -->

<text x="50"
      y="55"
      class="header">
Animal Flow — Live Capacity Reporting
</text>

<text x="50"
      y="85"
      class="subheader">
Decision Intelligence Command Centre • Capacity Intelligence • Placement Readiness
</text>

<!-- ================================================= -->
<!-- GLOBAL FILTERS                                    -->
<!-- ================================================= -->

<text x="50"
      y="135"
      class="section">
Global Filters
</text>

<rect x="50" y="155" width="220" height="40" rx="10" class="card"/>
<text x="85" y="180" class="label">Animal Type ▼</text>

<rect x="290" y="155" width="220" height="40" rx="10" class="card"/>
<text x="360" y="180" class="label">Region ▼</text>

<rect x="530" y="155" width="220" height="40" rx="10" class="card"/>
<text x="605" y="180" class="label">Centre ▼</text>

<rect x="770" y="155" width="260" height="40" rx="10" class="card"/>
<text x="840" y="180" class="label">Capacity Status ▼</text>

<!-- ================================================= -->
<!-- PROVINCIAL CAPACITY SNAPSHOT                       -->
<!-- ================================================= -->

<text x="50"
      y="260"
      class="section">
Provincial Capacity Snapshot
</text>

<rect x="50" y="285" width="260" height="110" rx="12" class="card"/>
<text x="70" y="320" class="cardTitle">Total DOG Spaces</text>
<text x="150" y="370" class="cardValue">###</text>

<rect x="340" y="285" width="260" height="110" rx="12" class="card"/>
<text x="360" y="320" class="cardTitle">Open DOG Spaces</text>
<text x="440" y="370" class="cardValue">###</text>

<rect x="630" y="285" width="260" height="110" rx="12" class="card"/>
<text x="650" y="320" class="cardTitle">DOG Utilization %</text>
<text x="740" y="370" class="cardValue">##%</text>

<rect x="920" y="285" width="260" height="110" rx="12" class="card"/>
<text x="940" y="320" class="cardTitle">Open CAT Spaces</text>
<text x="1020" y="370" class="cardValue">###</text>

<rect x="1210" y="285" width="260" height="110" rx="12" class="card"/>
<text x="1230" y="320" class="cardTitle">CAT Utilization %</text>
<text x="1320" y="370" class="cardValue">##%</text>

<!-- ================================================= -->
<!-- ACTION REQUIRED                                   -->
<!-- ================================================= -->

<text x="50"
      y="470"
      class="section">
Action Required
</text>

<rect x="50" y="495" width="390" height="130" rx="12" class="card"/>
<text x="70" y="535" class="cardTitle">Emergency Closures</text>
<text x="220" y="590" class="cardValue critical">#</text>

<rect x="470" y="495" width="390" height="130" rx="12" class="card"/>
<text x="490" y="535" class="cardTitle">Full Centres</text>
<text x="620" y="590" class="cardValue critical">#</text>

<rect x="890" y="495" width="390" height="130" rx="12" class="card"/>
<text x="910" y="535" class="cardTitle">Data Quality Issues</text>
<text x="1040" y="590" class="cardValue warning">#</text>

<rect x="1310" y="495" width="390" height="130" rx="12" class="card"/>
<text x="1330" y="535" class="cardTitle">Stale Updates</text>
<text x="1460" y="590" class="cardValue warning">#</text>

<!-- ================================================= -->
<!-- INTAKE READINESS                                  -->
<!-- ================================================= -->

<text x="50"
      y="700"
      class="section">
Intake Readiness
</text>

<rect x="50" y="725" width="800" height="120" rx="12" class="card"/>
<text x="75" y="765" class="cardTitle">Candidate Centres</text>
<text x="380" y="810" class="cardValue success">#</text>

<rect x="900" y="725" width="800" height="120" rx="12" class="card"/>
<text x="930" y="765" class="cardTitle">Monitor Centres</text>
<text x="1230" y="810" class="cardValue warning">#</text>

<!-- ================================================= -->
<!-- PLACEMENT DECISION BOARD                          -->
<!-- ================================================= -->

<text x="50"
      y="930"
      class="section">
Placement Decision Board
</text>

<rect x="50"
      y="955"
      width="1650"
      height="300"
      rx="12"
      class="card"/>

<text x="80" y="1000" class="cardTitle">
Priority Intake Ranking
</text>

<text x="80" y="1060" class="label">
Centre | Region | Open Capacity | Utilization | Recommendation
</text>

<text x="80" y="1110" class="label">
Candidate Centre 1
</text>

<text x="80" y="1160" class="label">
Candidate Centre 2
</text>

<text x="80" y="1210" class="label">
Candidate Centre 3
</text>

<!-- ================================================= -->
<!-- CAPACITY ANALYSIS                                 -->
<!-- ================================================= -->

<text x="50"
      y="1335"
      class="section">
Capacity Analysis
</text>

<rect x="50"
      y="1360"
      width="800"
      height="240"
      rx="12"
      class="card"/>

<text x="80" y="1405" class="cardTitle">
DOG Capacity Comparison
</text>

<text x="80" y="1455" class="label">
Comparison Visualization Placeholder
</text>

<rect x="900"
      y="1360"
      width="800"
      height="240"
      rx="12"
      class="card"/>

<text x="930" y="1405" class="cardTitle">
CAT Capacity Comparison
</text>

<text x="930" y="1455" class="label">
Comparison Visualization Placeholder
</text>

<!-- ================================================= -->
<!-- DATA TRUST                                        -->
<!-- ================================================= -->

<text x="50"
      y="1675"
      class="section">
Data Trust
</text>

<rect x="50"
      y="1700"
      width="800"
      height="240"
      rx="12"
      class="card"/>

<text x="80" y="1745" class="cardTitle">
Data Quality Summary
</text>

<text x="80" y="1800" class="label">
Missing Assignments
</text>

<text x="650" y="1800" class="cardValue warning">#</text>

<text x="80" y="1850" class="label">
Capacity Confirmation Status
</text>

<text x="650" y="1850" class="cardValue info">#%</text>

<rect x="900"
      y="1700"
      width="800"
      height="240"
      rx="12"
      class="card"/>

<text x="930" y="1745" class="cardTitle">
Data Freshness
</text>

<text x="930" y="1800" class="label">
Last Capacity Update
</text>

<text x="930" y="1850" class="label">
ShelterBuddy Sync Status
</text>

<!-- ================================================= -->
<!-- REGIONAL HEALTH                                   -->
<!-- ================================================= -->

<text x="50"
      y="2020"
      class="section">
Regional Health
</text>

<rect x="50"
      y="2045"
      width="1650"
      height="180"
      rx="12"
      class="card"/>

<text x="80" y="2090" class="cardTitle">
Regional Capacity Ranking
</text>

<text x="80" y="2140" class="label">
Horizontal Bar Chart Placeholder
</text>

<!-- ================================================= -->
<!-- OPERATIONAL BRIEFING                              -->
<!-- ================================================= -->

<text x="50"
      y="2300"
      class="section">
Operational Briefing
</text>

<rect x="50"
      y="2320"
      width="520"
      height="90"
      rx="12"
      class="card"/>

<text x="75" y="2360" class="cardTitle">
Capacity Recommendation
</text>

<rect x="615"
      y="2320"
      width="520"
      height="90"
      rx="12"
      class="card"/>

<text x="640" y="2360" class="cardTitle">
Placement Recommendation
</text>

<rect x="1180"
      y="2320"
      width="520"
      height="90"
      rx="12"
      class="card"/>

<text x="1205" y="2360" class="cardTitle">
Data Quality Recommendation
</text>

</svg>